<svg xmlns="http://www.w3.org/2000/svg" id="Layer_1" data-name="Layer 1" viewBox="0 0 331.02 382.23">
  <defs>
    <style>
      .cls-1 {
        fill: #231f20;
        stroke-width: 0px;
      }
    </style>
  </defs>
  <path class="cls-1" d="M326.51,92.95l-.92-.53-.92-.53-21.23-12.25h0s-1.74-1.01-1.74-1.01l-22.98-13.27-.91-.52-.92-.53-1.03-.6h-.01s-21.92-12.66-21.92-12.66l-5.66-3.27-17.32-10-.92-.53-.92-.53-8.43-4.87-14.54-8.39-13.04-7.53-9.92-5.73-.92-.53-.92-.53-15.82-9.14h-.01s-14.29,8.26-14.29,8.26l-1.68.97-1.69.97-9.92,5.73-12.28,7.09-15.31,8.84-6.91,3.99-1.67.96-1.68.97-17.32,10-4.89,2.82-22.22,12.83-.48.28-1.19.69-1.67.96-22.22,12.83-2.5,1.44h0s-.01,0-.01,0l-19.7,11.37-1.68.97-1.68.97-4.52,2.61v31.85h0v127.41h0v31.85h0l16.74,9.67,10.84,6.26h.01l6.97,4.03,6.06,3.5,6.07,3.5,8.47,4.89h.01s9.34,5.4,9.34,5.4l17.83,10.29.41.24h.01l5.65,3.27,6.05,3.49,15.87,9.16h0s1.97,1.14,1.97,1.14l17.82,10.29,6.06,3.5,1.74,1,4.32,2.5,17.83,10.29,5.44,3.14,6.19-3.58,17.07-9.85,4.32-2.5,2.5-1.44,6.81-3.93,17.08-9.86,1.19-.69,15.88-9.17,6.82-3.94,4.88-2.81h.01s1.93-1.12,1.93-1.12l17.07-9.86,8.58-4.95,8.48-4.9,6.83-3.94,6.82-3.94,5.45-3.15h.01l11.61-6.7,15.97-9.22v-31.85h0v-127.41h0v-31.86l-4.51-2.61ZM303.44,220.62v18.27h0v31.86h-.01l-2.17,1.26-23.48,13.55-.41.24-.42.24-1.1.64-22.37,12.91-5.21,3.01h-.01l-18.26,10.55-.41.24-.43.24-8.48,4.9-14.98,8.65-12.6,7.27-10.87,6.27-.42.25-11.29-19.55-2.51-4.34-1.98-3.45,11.54-19.99,4.38-7.59h0s.01-.01.01-.01l7.66-13.28,1.74-3.01,1.74-3.01,4.78-8.28,7.27-12.6,8.65-14.99h.01l3.4-5.89,1.74-3.01,1.73-3,9.05-15.68,3.01-5.21,12.05-20.87,1.3-.75,1.31-.76.87-.5h0s21.71-12.54,21.71-12.54l5.87-3.39h.01l16.71-9.65,1.29-.75,9.58,16.59v9.73h0v45.43ZM149.64,341.21l-11.71-6.76-11.83-6.83-15.75-9.09h-.01s-7.79-4.51-7.79-4.51l-.34-.19-.34-.2-19.1-11.03h-.01l-4.44-2.57-23.14-13.35h-.01s-.41-.25-.41-.25l-.33-.19-.35-.2-23.54-13.59-2.95-1.7v-95.55h0v-7.99l10.33-17.9,2.07,1.19,15.18,8.77,6.65,3.83,20.94,12.09h0s.87.51.87.51l2.07,1.2,2.07,1.19,11.29,19.55,3.26,5.65,8.02,13.89,2.51,4.35,2.5,4.34,2.89,5h.01l8.39,14.55,7.53,13.04,3.76,6.51,2.5,4.34,2.51,4.34,7.15,12.39h.01s4.13,7.16,4.13,7.16l11.28,19.54.51.89-.51.89-1.73,3-1.73,3-11.95,20.69h0s-.11.2-.11.2l-.35-.2ZM193.1,175.2h-.01.01s0,0,0,0ZM213.81,120.54h-.01s.01-.01.01-.01h0ZM118.24,120.54h0s.01-.01.01-.01h-.01ZM277.51,120.54h0s0-.01,0-.01h0ZM245.65,65.37h0s.01-.01.01-.01h-.01ZM22.69,230.87h0s-.01,0-.01,0h.01ZM277.51,65.36h0s0,0,0,0h0Z"/>
</svg>
